<?xml version="1.0" encoding="UTF-8" standalone="no"?>
<!DOCTYPE svg PUBLIC "-//W3C//DTD SVG 1.1//EN" "http://www.w3.org/Graphics/SVG/1.1/DTD/svg11.dtd">
<svg width="100%" height="100%" viewBox="0 0 789 494" version="1.1" xmlns="http://www.w3.org/2000/svg" xmlns:xlink="http://www.w3.org/1999/xlink" xml:space="preserve" xmlns:serif="http://www.serif.com/" style="fill-rule:evenodd;clip-rule:evenodd;stroke-linejoin:round;stroke-miterlimit:2;">
    <g transform="matrix(4.16667,0,0,4.16667,-863.562,-502.936)">
        <g id="g6">
            <path id="path8" d="M230.13,237.855L230.405,237.684L230.405,233.24L229.661,233.24L229.24,237.401L229.241,237.401C229.232,237.524 229.211,237.635 229.182,237.733C229.114,237.967 228.992,238.135 228.829,238.239C228.666,238.342 228.466,238.382 228.238,238.364L228.237,238.364C228.12,238.355 227.993,238.33 227.859,238.29L227.771,238.265L227.781,238.174L227.825,237.769L227.838,237.656L227.95,237.672C228.055,237.687 228.165,237.7 228.236,237.663C228.307,237.626 228.361,237.528 228.38,237.314L228.38,237.311L228.823,233.169L228.56,232.951L228.52,232.918L228.52,232.519L231.751,232.519L231.751,232.92L231.709,232.952L231.469,233.139L231.469,237.684L231.751,237.854L231.804,237.887L231.804,238.295L230.079,238.295L230.079,237.887L230.131,237.855L230.13,237.855ZM236.629,233.128C236.559,233.068 236.483,233.004 236.407,232.942L236.366,232.91L236.366,232.519L237.985,232.519L237.985,232.91L237.944,232.943L237.713,233.13L237.713,237.647L237.996,237.87L238.038,237.903L238.038,238.185L238.038,238.295L236.314,238.295L236.314,238.185L236.314,237.903L236.357,237.87L236.648,237.646C236.648,237.032 236.646,236.479 236.644,235.929L236.641,234.903L236.545,235.219L236.543,235.226L235.612,237.672L235.865,237.87L235.907,237.903L235.907,238.185L235.907,238.295L234.183,238.295L234.183,238.185L234.183,237.903L234.224,237.87L234.508,237.647L234.508,233.13L234.276,232.942L234.235,232.909L234.235,232.519L235.855,232.519L235.855,232.909L235.813,232.942L235.581,233.13L235.581,235.967L235.667,235.684L235.67,235.677L236.629,233.128L236.629,233.128ZM244.009,232.519L244.009,232.911L243.967,232.944L243.727,233.131L243.727,237.648L244.011,237.871L244.053,237.903L244.053,238.185L244.053,238.295L242.329,238.295L242.328,238.185L242.328,237.902L242.371,237.87L242.663,237.647L242.663,236.076L242.306,236.076C241.778,236.076 241.338,235.902 241.03,235.595L241.03,235.595C240.723,235.288 240.549,234.85 240.549,234.32L240.549,233.168L240.251,232.945L240.206,232.912L240.206,232.519L241.966,232.519L241.966,232.912L241.922,232.945L241.623,233.168L241.623,234.32C241.623,234.629 241.67,234.88 241.783,235.048C241.889,235.205 242.06,235.293 242.315,235.293L242.663,235.293L242.663,233.131L242.423,232.944L242.381,232.911L242.381,232.858L242.381,232.519L244.009,232.519ZM246.485,237.855L246.767,237.684L246.767,233.14L246.527,232.952L246.485,232.92L246.485,232.519L248.113,232.519L248.113,232.92L248.07,232.952L247.831,233.14L247.831,235.003L248.845,235.003L248.845,233.14L248.605,232.952L248.563,232.92L248.563,232.52L250.182,232.52L250.182,232.92L250.14,232.952L249.9,233.14L249.9,237.683L250.19,237.854L250.244,237.886L250.244,238.295L248.519,238.295L248.519,237.887L248.571,237.855L248.845,237.684L248.845,235.697L247.831,235.697L247.831,237.684L248.112,237.855L248.166,237.887L248.166,238.295L246.432,238.295L246.432,237.887L246.485,237.855ZM255.714,232.863C256.017,233.141 256.188,233.54 256.188,234.02L256.188,236.785C256.188,237.266 256.017,237.664 255.713,237.943C255.413,238.219 254.984,238.375 254.467,238.375L254.467,238.376C253.952,238.376 253.527,238.218 253.229,237.943C252.925,237.663 252.755,237.263 252.755,236.785L252.755,234.02C252.755,233.542 252.925,233.143 253.228,232.864C253.527,232.589 253.952,232.431 254.467,232.431L254.467,232.431C254.984,232.431 255.413,232.587 255.714,232.863ZM253.992,233.394C253.887,233.528 253.837,233.737 253.837,234.02L253.837,236.785C253.837,237.065 253.887,237.274 253.992,237.408C254.091,237.535 254.248,237.6 254.467,237.6C254.672,237.6 254.824,237.522 254.927,237.395L254.927,237.395C255.048,237.245 255.106,237.026 255.106,236.785L255.106,234.02C255.106,233.57 254.903,233.205 254.467,233.205C254.247,233.205 254.091,233.268 253.992,233.394ZM261.913,236.834L261.913,238.295L258.699,238.295L258.699,237.892L258.745,237.859L259.043,237.645L259.043,233.115L258.796,232.928L258.752,232.895L258.752,232.519L261.807,232.519L261.807,233.98L261.203,233.98L261.179,233.902L260.974,233.231L260.125,233.231L260.125,235.064L260.67,235.064L260.86,234.693L260.891,234.633L261.314,234.633L261.314,234.742L261.314,236.081L261.314,236.19L260.893,236.19L260.862,236.133L260.673,235.785L260.125,235.785L260.125,237.393C260.125,237.463 260.117,237.522 260.092,237.574L261.076,237.574L261.331,236.905L261.358,236.834L261.913,236.834ZM270.183,237.684L270.183,233.24L269.169,233.24L269.169,237.684L269.451,237.855L269.504,237.887L269.504,238.295L267.77,238.295L267.77,237.887L267.823,237.855L268.105,237.684L268.105,233.14L267.865,232.952L267.823,232.92L267.823,232.519L271.52,232.519L271.52,232.92L271.478,232.952L271.239,233.14L271.239,237.683L271.528,237.854L271.582,237.886L271.582,238.295L269.857,238.295L269.857,237.887L269.909,237.855L270.183,237.684ZM277.052,232.863C277.355,233.141 277.526,233.54 277.526,234.02L277.526,236.785C277.526,237.266 277.355,237.664 277.052,237.943C276.751,238.219 276.322,238.375 275.805,238.375L275.805,238.376C275.29,238.376 274.865,238.218 274.567,237.943C274.264,237.663 274.093,237.263 274.093,236.785L274.093,234.02C274.093,233.542 274.264,233.143 274.567,232.864C274.865,232.589 275.29,232.431 275.805,232.431L275.805,232.431C276.322,232.431 276.751,232.587 277.052,232.863ZM275.33,233.394C275.225,233.528 275.175,233.737 275.175,234.02L275.175,236.785C275.175,237.065 275.225,237.274 275.33,237.408C275.429,237.535 275.586,237.6 275.805,237.6C276.01,237.6 276.162,237.522 276.265,237.395L276.265,237.395C276.386,237.245 276.444,237.026 276.444,236.785L276.444,234.02C276.444,233.57 276.241,233.205 275.805,233.205C275.585,233.205 275.429,233.268 275.33,233.394ZM282.424,233.231L281.593,233.231L281.215,237.085L281.215,237.086L281.212,237.118C281.195,237.295 281.18,237.442 281.096,237.565L282.424,237.565L282.424,233.231ZM280.225,237.518C280.304,237.463 280.354,237.35 280.373,237.152L280.373,237.151L280.789,233.14L280.525,232.956L280.478,232.924L280.478,232.519L283.77,232.519L283.77,232.92L283.728,232.952L283.488,233.14L283.488,237.565L283.969,237.565L283.973,237.67L284.025,238.993L284.03,239.107L283.404,239.107L283.381,239.029L283.158,238.295L280.572,238.295L280.349,239.029L280.325,239.107L279.7,239.107L279.704,238.994L279.748,237.671L279.752,237.555L279.867,237.566C280.023,237.581 280.146,237.574 280.226,237.518L280.225,237.518ZM288.975,232.502L289.741,232.502L289.741,234.279L288.659,234.279L288.659,234.02C288.659,233.792 288.628,233.587 288.537,233.445C288.452,233.313 288.307,233.231 288.073,233.231C287.915,233.231 287.756,233.288 287.645,233.435C287.549,233.563 287.487,233.76 287.487,234.047L287.487,236.794C287.487,237.098 287.544,237.309 287.65,237.439C287.749,237.562 287.899,237.618 288.09,237.618C288.333,237.618 288.486,237.552 288.575,237.432C288.669,237.303 288.703,237.106 288.703,236.856L288.703,236.856L288.703,236.447L289.794,236.447L289.794,236.865C289.794,237.365 289.624,237.733 289.343,237.983C289.035,238.258 288.594,238.384 288.099,238.384C287.609,238.384 287.167,238.247 286.857,237.958C286.576,237.695 286.405,237.311 286.405,236.794L286.405,236.794L286.405,234.047L286.405,234.047C286.405,233.546 286.561,233.155 286.841,232.885C287.128,232.61 287.541,232.466 288.047,232.466C288.218,232.466 288.398,232.483 288.568,232.531C288.693,232.566 288.815,232.62 288.923,232.696L288.953,232.583L288.975,232.502ZM295.255,232.863C295.558,233.141 295.729,233.54 295.729,234.02L295.729,236.785C295.729,237.266 295.558,237.664 295.254,237.943C294.954,238.219 294.525,238.375 294.008,238.375L294.008,238.376C293.493,238.376 293.068,238.218 292.77,237.943C292.467,237.663 292.296,237.263 292.296,236.785L292.296,234.02C292.296,233.542 292.467,233.143 292.77,232.864C293.068,232.589 293.493,232.431 294.008,232.431L294.008,232.431C294.525,232.431 294.954,232.587 295.255,232.863ZM293.533,233.394C293.428,233.528 293.378,233.737 293.378,234.02L293.378,236.785C293.378,237.065 293.428,237.274 293.533,237.408C293.632,237.535 293.789,237.6 294.008,237.6C294.213,237.6 294.365,237.522 294.468,237.395L294.468,237.395C294.589,237.245 294.647,237.026 294.647,236.785L294.647,234.02C294.647,233.57 294.444,233.205 294.008,233.205C293.788,233.205 293.632,233.268 293.533,233.394ZM299.64,237.565L300.023,237.565C300.247,237.565 300.394,237.508 300.482,237.402L300.482,237.402C300.572,237.293 300.609,237.121 300.609,236.9L300.609,236.16C300.609,235.939 300.57,235.766 300.477,235.653C300.387,235.545 300.238,235.486 300.014,235.486L299.64,235.486L299.64,237.565ZM301.18,235.062C301.5,235.272 301.7,235.616 301.7,236.16L301.7,236.9L301.7,236.9C301.7,237.385 301.532,237.721 301.26,237.942C300.947,238.198 300.5,238.295 300.014,238.295L298.293,238.295L298.293,237.895L298.335,237.862L298.575,237.675L298.575,233.113L298.335,232.926L298.294,232.893L298.294,232.519L301.463,232.519L301.462,232.629L301.453,233.871L301.452,233.98L300.849,233.98L300.825,233.902L300.62,233.231L299.639,233.231L299.639,234.791L299.996,234.791C300.451,234.791 300.87,234.86 301.18,235.063L301.18,235.062ZM304.123,237.855L304.405,237.684L304.405,233.14L304.165,232.952L304.123,232.92L304.123,232.519L305.751,232.519L305.751,232.92L305.709,232.952L305.469,233.14L305.469,235.003L306.483,235.003L306.483,233.14L306.243,232.952L306.201,232.92L306.201,232.52L307.821,232.52L307.821,232.92L307.778,232.952L307.539,233.14L307.539,237.683L307.828,237.854L307.882,237.886L307.882,238.295L306.157,238.295L306.157,237.887L306.209,237.855L306.483,237.684L306.483,235.697L305.469,235.697L305.469,237.684L305.751,237.855L305.804,237.887L305.804,238.295L304.07,238.295L304.07,237.887L304.123,237.855ZM313.352,232.863C313.655,233.141 313.827,233.54 313.827,234.02L313.827,236.785C313.827,237.266 313.655,237.664 313.352,237.943C313.051,238.219 312.622,238.375 312.106,238.375L312.106,238.376C311.59,238.376 311.165,238.218 310.867,237.943C310.564,237.663 310.393,237.263 310.393,236.785L310.393,234.02C310.393,233.542 310.564,233.143 310.867,232.864C311.165,232.589 311.59,232.431 312.106,232.431L312.106,232.431C312.622,232.431 313.051,232.587 313.352,232.863ZM311.63,233.394C311.525,233.528 311.475,233.737 311.475,234.02L311.475,236.785C311.475,237.065 311.525,237.274 311.63,237.408C311.729,237.535 311.886,237.6 312.106,237.6C312.31,237.6 312.463,237.522 312.565,237.395L312.565,237.395C312.686,237.245 312.745,237.026 312.745,236.785L312.745,234.02C312.745,233.57 312.542,233.205 312.106,233.205C311.886,233.205 311.729,233.268 311.63,233.394ZM319.551,236.834L319.551,238.295L316.337,238.295L316.337,237.892L316.383,237.859L316.681,237.645L316.681,233.115L316.434,232.928L316.391,232.895L316.391,232.519L319.445,232.519L319.445,233.98L318.841,233.98L318.817,233.902L318.612,233.231L317.763,233.231L317.763,235.064L318.309,235.064L318.498,234.693L318.529,234.633L318.952,234.633L318.952,236.19L318.532,236.19L318.5,236.133L318.311,235.785L317.763,235.785L317.763,237.393C317.763,237.463 317.755,237.522 317.731,237.574L318.714,237.574L318.969,236.905L318.996,236.834L319.551,236.834ZM326.506,232.59C326.592,232.649 326.655,232.749 326.721,232.925L327.186,234.174L327.728,233.049L327.566,232.951L327.513,232.919L327.513,232.519L328.842,232.519L328.842,232.923L328.783,232.954L328.516,233.096L327.539,235.117L328.557,237.734L328.8,237.891L328.85,237.924L328.85,238.295L327.983,238.295C327.846,238.295 327.746,238.289 327.65,238.23L327.65,238.23C327.557,238.173 327.486,238.073 327.416,237.891L327.415,237.891L326.856,236.493L326.25,237.753L326.426,237.853L326.481,237.884L326.481,238.295L325.126,238.295L325.126,237.884L325.183,237.852L325.435,237.71L326.508,235.529L325.568,233.06L325.377,232.93L325.329,232.898L325.329,232.519L326.178,232.519C326.317,232.519 326.415,232.528 326.506,232.59ZM334.153,232.863C334.456,233.141 334.627,233.54 334.627,234.02L334.627,236.785C334.627,237.266 334.456,237.664 334.152,237.943C333.852,238.219 333.423,238.375 332.906,238.375L332.906,238.376C332.391,238.376 331.966,238.218 331.668,237.943C331.365,237.663 331.194,237.263 331.194,236.785L331.194,234.02C331.194,233.542 331.365,233.143 331.668,232.864C331.966,232.589 332.391,232.431 332.906,232.431L332.906,232.431C333.423,232.431 333.852,232.587 334.153,232.863ZM332.431,233.394C332.326,233.528 332.276,233.737 332.276,234.02L332.276,236.785C332.276,237.065 332.326,237.274 332.431,237.408C332.53,237.535 332.687,237.6 332.906,237.6C333.111,237.6 333.263,237.522 333.366,237.395L333.366,237.395C333.487,237.245 333.545,237.026 333.545,236.785L333.545,234.02C333.545,233.57 333.342,233.205 332.906,233.205C332.686,233.205 332.53,233.268 332.431,233.394ZM339.866,235.047C339.795,235.134 339.707,235.207 339.6,235.263C339.788,235.334 339.914,235.431 340.001,235.56L340,235.56C340.13,235.754 340.158,236.008 340.158,236.345L340.158,236.953C340.158,237.435 340.016,237.789 339.757,238.027C339.487,238.277 339.093,238.393 338.604,238.393L338.604,238.393C338.114,238.393 337.737,238.28 337.479,238.042C337.219,237.802 337.085,237.442 337.085,236.953L337.085,236.491L338.15,236.491L338.15,236.953C338.15,237.137 338.161,237.317 338.227,237.442C338.286,237.553 338.397,237.627 338.604,237.627C338.954,237.627 339.076,237.286 339.076,236.953L339.076,236.345C339.076,236.167 339.048,236.004 338.971,235.892C338.9,235.789 338.778,235.724 338.587,235.724L338.576,235.723C338.52,235.717 338.399,235.72 338.304,235.722L338.2,235.724L338.089,235.726L338.089,234.862L338.56,234.862C338.719,234.862 338.829,234.809 338.899,234.724C338.987,234.618 339.023,234.456 339.023,234.276L339.023,234.275L339.025,234.123C339.027,234.019 339.029,233.908 339.023,233.797L339.023,233.797C339.015,233.628 338.988,233.466 338.919,233.352C338.86,233.253 338.761,233.188 338.604,233.188C338.408,233.188 338.305,233.244 338.253,233.336L338.253,233.336C338.194,233.44 338.185,233.6 338.185,233.783L338.185,234.165L337.147,234.165L337.147,233.783L337.147,233.783C337.147,233.295 337.277,232.955 337.527,232.735L337.528,232.735C337.776,232.517 338.137,232.423 338.604,232.423C339.061,232.423 339.427,232.524 339.682,232.746C339.939,232.971 340.078,233.313 340.078,233.792L340.078,234.364C340.078,234.637 340.01,234.87 339.865,235.047L339.866,235.047ZM344.57,236.109C344.485,236.174 344.428,236.292 344.36,236.478L344.359,236.481L343.963,237.503C343.944,237.553 343.92,237.622 343.897,237.685L343.897,237.685C343.762,238.07 343.66,238.357 343.148,238.349L343.148,238.35C343.046,238.35 342.916,238.341 342.791,238.318L342.791,238.318C342.689,238.3 342.589,238.271 342.509,238.23L342.449,238.2L342.449,237.674L342.58,237.7C342.786,237.741 342.919,237.328 342.98,237.137C342.992,237.101 343.002,237.07 343.01,237.048L343.011,237.045L343.012,237.045L343.284,236.291L343.284,236.29C343.331,236.161 343.382,236.055 343.453,235.962C343.484,235.922 343.519,235.885 343.558,235.85C343.363,235.773 343.194,235.649 343.067,235.48C342.911,235.272 342.819,234.994 342.819,234.646L342.819,233.924C342.819,233.436 342.984,233.098 343.255,232.874L343.255,232.874C343.565,232.619 344.008,232.52 344.496,232.52L346.208,232.52L346.208,232.919L346.167,232.952L345.935,233.139L345.935,237.646L346.225,237.86L346.269,237.893L346.269,238.295L344.536,238.295L344.536,237.893L344.87,237.646L344.87,236.026C344.73,236.033 344.636,236.058 344.57,236.109L344.57,236.109ZM344.504,235.319L344.879,235.319L344.879,233.249L344.496,233.249C344.263,233.249 344.114,233.308 344.027,233.416C343.936,233.528 343.901,233.701 343.901,233.923L343.901,234.645C343.901,234.866 343.941,235.039 344.036,235.151C344.128,235.26 344.28,235.319 344.504,235.319ZM351.326,231.068L351.569,231.11L351.57,231.201L351.571,231.224C351.571,231.548 351.473,231.79 351.299,231.953C351.127,232.116 350.882,232.196 350.588,232.2L350.562,232.201L350.54,232.2C350.248,232.196 350.014,232.112 349.851,231.948C349.688,231.784 349.599,231.544 349.599,231.226L349.6,231.225L349.6,231.201L349.601,231.11L349.69,231.094L349.989,231.041L350.102,231.022L350.117,231.135C350.127,231.212 350.17,231.285 350.245,231.336C350.319,231.387 350.425,231.419 350.563,231.419C350.708,231.419 350.825,231.386 350.909,231.333C350.991,231.281 351.041,231.21 351.054,231.131L351.073,231.022L351.181,231.042L351.326,231.068ZM350.942,232.528L352.451,232.528L352.451,232.919L352.41,232.952L352.179,233.139L352.179,237.648L352.462,237.87L352.504,237.903L352.504,238.295L350.78,238.295L350.78,237.902L350.823,237.87L351.114,237.647C351.114,237.102 351.111,236.516 351.109,235.933L351.106,234.907L351.01,235.223L351.008,235.23L350.077,237.673L350.331,237.87L350.372,237.902L350.372,238.295L348.648,238.295L348.648,237.903L348.69,237.87L348.974,237.648L348.974,233.139L348.742,232.951L348.701,232.919L348.701,232.528L350.32,232.528L350.32,232.919L350.279,232.951L350.047,233.139L350.047,235.971L350.132,235.688L350.135,235.681L351.095,233.136C351.029,233.079 350.955,233.019 350.883,232.96L350.873,232.951L350.833,232.918L350.833,232.528L350.942,232.528L350.942,232.528ZM357.612,232.502L358.378,232.502L358.378,234.279L357.296,234.279L357.296,234.02C357.296,233.792 357.265,233.587 357.174,233.445C357.09,233.313 356.944,233.231 356.71,233.231C356.552,233.231 356.393,233.288 356.282,233.435C356.186,233.563 356.124,233.76 356.124,234.047L356.124,236.794C356.124,237.098 356.182,237.309 356.287,237.439C356.386,237.562 356.537,237.618 356.728,237.618C356.971,237.618 357.123,237.552 357.212,237.432C357.306,237.303 357.341,237.106 357.341,236.856L357.34,236.856L357.34,236.447L358.431,236.447L358.431,236.865C358.431,237.365 358.261,237.733 357.981,237.983C357.672,238.258 357.231,238.384 356.736,238.384C356.246,238.384 355.804,238.247 355.494,237.958C355.213,237.695 355.042,237.311 355.042,236.794L355.042,236.794L355.042,234.047L355.042,234.047C355.042,233.545 355.198,233.155 355.478,232.885C355.765,232.61 356.178,232.466 356.684,232.466C356.855,232.466 357.035,232.483 357.205,232.531C357.331,232.566 357.452,232.62 357.561,232.696L357.59,232.583L357.612,232.502ZM363.554,234.071L363.296,233.258L362.94,233.258L362.94,237.595L363.224,237.818L363.266,237.851L363.266,238.295L361.514,238.295L361.514,237.85L361.557,237.817L361.849,237.594L361.849,233.258L361.477,233.258L361.236,234.068L361.212,234.147L360.623,234.147L360.625,234.036L360.652,232.627L360.654,232.519L364.126,232.519L364.129,232.626L364.164,234.035L364.167,234.147L363.579,234.147L363.554,234.071L363.554,234.071ZM369.826,236.125L369.826,236.125L369.826,237.058C369.826,237.549 369.642,237.861 369.35,238.05C369.069,238.233 368.692,238.295 368.29,238.295L366.367,238.295L366.367,237.892L366.412,237.859L366.71,237.645L366.71,233.141L366.463,232.954L366.42,232.921L366.42,232.519L368.238,232.519C368.663,232.519 369.011,232.575 369.259,232.742C369.516,232.915 369.659,233.199 369.659,233.65L369.659,233.65L369.659,234.452C369.659,234.63 369.614,234.806 369.526,234.955C369.478,235.037 369.417,235.111 369.343,235.172C369.471,235.249 369.577,235.349 369.659,235.477C369.765,235.646 369.826,235.859 369.826,236.125ZM367.766,237.384C367.766,237.462 367.758,237.528 367.732,237.583L368.273,237.583C368.431,237.583 368.547,237.545 368.622,237.464L368.622,237.465C368.7,237.379 368.741,237.24 368.745,237.04L368.744,237.04L368.744,236.125C368.744,235.928 368.71,235.784 368.629,235.695C368.549,235.608 368.412,235.565 368.202,235.565L368.202,235.565L367.766,235.565L367.766,237.384ZM368.22,234.932C368.471,234.932 368.586,234.731 368.586,234.452L368.586,234.452L368.586,233.65C368.586,233.371 368.457,233.231 368.22,233.231L367.766,233.231L367.766,234.932L368.22,234.932ZM375.384,232.863C375.687,233.141 375.859,233.54 375.859,234.02L375.859,236.785C375.859,237.266 375.687,237.664 375.384,237.943C375.084,238.219 374.655,238.375 374.138,238.375L374.138,238.376C373.623,238.376 373.198,238.218 372.9,237.943C372.596,237.663 372.426,237.263 372.426,236.785L372.426,234.02C372.426,233.542 372.596,233.143 372.899,232.864C373.197,232.589 373.623,232.431 374.138,232.431L374.138,232.431C374.655,232.431 375.084,232.587 375.384,232.863ZM373.662,233.394C373.558,233.528 373.508,233.737 373.508,234.02L373.508,236.785C373.508,237.065 373.558,237.274 373.662,237.408C373.761,237.535 373.918,237.6 374.138,237.6C374.342,237.6 374.495,237.522 374.598,237.395L374.597,237.395C374.718,237.245 374.777,237.026 374.777,236.785L374.777,234.02C374.777,233.57 374.574,233.205 374.138,233.205C373.918,233.205 373.761,233.268 373.662,233.394Z" style="fill:rgb(194,142,56);"/>
            <path id="path10" d="M263.688,150.304C266.881,147.39 262.252,144.223 259.396,144.213C259.715,145.748 260.322,153.377 263.688,150.304ZM288.337,166.314C290.947,167.046 293.889,168.556 295.698,169.419C297.818,168.159 300.725,166.953 304.253,166.299L304.253,154.881L295.516,147.293L288.167,154.881L288.337,166.314ZM325.506,130.315L296.801,131.182L328.785,133.338C329.481,134.068 330.146,134.829 330.776,135.619L301.819,136.428L332.75,138.359C333.198,139.05 333.622,139.758 334.02,140.483L317.322,141.314L335.419,143.326C335.686,143.94 335.935,144.563 336.167,145.194L320.504,146.052L337.082,148.08C337.277,148.805 337.449,149.538 337.597,150.281L324.223,151.049L338.001,152.816C338.081,153.473 338.142,154.136 338.185,154.804L325.855,155.656L338.25,157.57C338.238,158.261 338.206,158.946 338.154,159.626L326.218,160.394L337.88,162.069C337.775,162.773 337.649,163.471 337.502,164.16C336.541,164.185 335.578,164.223 334.614,164.276C330.946,164.465 327.338,164.835 323.804,165.374L323.804,156.487L315.274,147.467L315.274,144.291L311.046,144.291L311.046,149.14C311.117,150.28 309.534,150.346 309.569,149.058L309.569,145.178L294.269,145.137L285.401,154.816L285.398,165.47C280.478,163.919 275.385,162.801 270.067,162.227C269.805,160.519 269.668,158.771 269.668,156.99C269.668,152.716 270.867,148.243 275.879,147.34C273.033,149.396 271.244,152.933 271.348,156.91C278.293,154.341 275.92,149.865 278.851,145.648C276.922,144.734 273.021,145.115 269.678,148.545C272.508,133.47 288.794,130.979 293.14,136.572C284.627,134.442 280.173,137.35 277.616,140.682C286.251,148.204 291.248,139.92 298.826,138.007C293.059,128.843 278.899,128.421 272.14,136.606C271.236,132.157 268.247,128.291 263.948,127.158C263.761,132.342 257.941,141.281 265.723,143.394C267.425,139.837 267.89,135.402 266.435,130.538C270.11,133.906 269.634,138.929 268.275,143.697C265.942,151.882 264.997,160.339 267.244,168.645C271.619,184.801 286.385,196.691 303.923,196.691C324.903,196.691 341.916,179.678 341.918,158.697C341.919,137.717 324.902,120.701 303.924,120.705C297.053,120.704 290.603,122.512 285.063,125.734C282.135,127.437 284.018,129.182 286.171,127.696C291.356,124.527 297.442,122.696 303.963,122.695C308.98,122.696 313.744,123.776 318.039,125.714L292.964,126.531L322.858,128.374C323.772,128.979 324.656,129.628 325.506,130.315L325.506,130.315ZM306.804,175.16C316.18,170.283 326.486,166.797 337.344,164.864C337.042,166.148 336.669,167.404 336.227,168.627C327.038,169.707 318.409,172.805 310.667,177.476C309.387,176.684 308.099,175.911 306.804,175.16ZM320.358,183.876C323.93,180.659 328.121,177.95 332.637,175.795C330.071,179.698 326.732,183.048 322.835,185.622C322.011,185.035 321.185,184.453 320.358,183.876ZM333.679,174.107C327.779,175.696 322.303,178.346 317.389,181.836C316.473,181.217 315.555,180.606 314.634,180.003C320.815,175.311 328.172,171.765 335.927,169.427C335.294,171.051 334.541,172.614 333.679,174.107ZM297.615,159.997L293.618,159.997L293.619,156.381L297.615,156.381L297.615,159.997ZM316.87,157.693L311.877,157.693L311.877,161.309L316.87,161.309L316.87,157.693ZM275.401,131.416C277.125,130.223 277.396,127.115 274.579,124.666C274.399,125.865 272.691,127.376 271.974,128.799C270.857,131.014 273.569,132.684 275.401,131.416ZM297.383,192.183C295.549,191.965 293.651,191.61 291.443,190.6C287.284,186.521 282.935,183.46 277.391,180.693C285.259,182.525 292.308,187.404 297.383,192.183ZM274.017,173.704L274.018,173.706C283.311,177.259 295.262,183.773 303.911,191.283L303.962,191.283C305.713,191.283 307.432,191.151 309.112,190.898C300.853,184.043 286.088,176.246 274.016,173.704L274.017,173.704ZM315.018,189.46C316.313,189.018 317.574,188.503 318.795,187.916C306.836,179.44 289.667,169.075 271.066,166.08C289.113,171.631 302.379,180.265 315.018,189.46Z" style="fill:rgb(194,142,56);"/>
            <path id="path12" d="M211.299,222.181L212.822,222.181C213.657,222.181 214.218,221.961 214.563,221.552C214.913,221.136 215.058,220.513 215.058,219.717L215.058,219.717L215.058,217.247L215.058,217.247C215.058,216.452 214.901,215.837 214.542,215.428L214.542,215.428C214.186,215.024 213.619,214.809 212.796,214.809L212.796,214.81L211.299,214.81L211.299,222.181ZM216.558,213.779C217.56,214.441 218.18,215.532 218.18,217.247L218.18,219.717C218.18,221.262 217.652,222.338 216.79,223.05L216.789,223.05C215.796,223.87 214.367,224.195 212.796,224.195L207.445,224.195L207.255,224.195L207.255,223.141L207.338,223.084L208.257,222.455L208.257,206.969L207.338,206.341L207.255,206.284L207.255,205.309L217.389,205.309L217.389,209.836L215.737,209.836L215.698,209.698L214.999,207.244L211.298,207.244L211.298,212.901L212.743,212.901C214.227,212.901 215.574,213.127 216.558,213.779ZM236.392,208.218C237.177,208.863 237.66,209.838 237.66,211.246L237.66,214.198C237.66,215.774 237.086,216.767 236.167,217.369C235.265,217.958 234.036,218.158 232.699,218.158L231.492,218.158L231.492,222.461L232.391,223.142L232.467,223.199L232.467,224.195L227.579,224.195L227.579,223.197L227.659,223.14L228.608,222.458L228.608,208.835L227.813,208.234L227.737,208.177L227.737,207.18L232.751,207.18L232.751,207.181C234.173,207.181 235.482,207.471 236.392,208.218ZM234.279,209.639C233.988,209.283 233.507,209.09 232.778,209.09L231.492,209.09L231.492,216.354L232.752,216.354L232.752,216.355C233.468,216.355 233.955,216.16 234.258,215.802C234.565,215.438 234.697,214.892 234.697,214.198L234.697,211.246C234.697,210.55 234.577,210.003 234.279,209.639ZM254.809,214.832C253.98,217.333 253.147,219.84 252.307,222.223C252.245,222.402 252.179,222.566 252.111,222.717L252.11,222.717C251.727,223.558 251.19,224.118 250.534,224.395C249.878,224.673 249.11,224.665 248.265,224.373C248.11,224.32 247.947,224.254 247.778,224.177L247.642,224.114L247.671,223.968L247.907,222.782L247.95,222.57L248.155,222.639C248.802,222.858 249.245,222.894 249.569,222.729L249.57,222.729C249.897,222.563 250.135,222.179 250.368,221.565L250.369,221.565L251.055,219.733L247.021,208.644L246.092,208.229L245.98,208.179L245.98,207.18L247.919,207.18L247.919,207.181C249.563,207.18 249.817,207.181 250.249,208.333L250.251,208.339L252.623,215.432L254.799,208.57L254.119,208.196L254.02,208.142L254.02,207.181L257.722,207.181L257.722,208.137L257.629,208.193L256.898,208.631C256.185,210.689 255.497,212.759 254.809,214.832L254.809,214.832ZM274.337,207.128L276.386,207.128L276.386,212.174L273.423,212.174L273.423,211.536C273.423,210.831 273.324,210.192 273.035,209.74C272.756,209.307 272.286,209.037 271.53,209.037C271.018,209.037 270.5,209.223 270.14,209.702C269.836,210.107 269.637,210.724 269.637,211.615L269.637,219.84C269.637,220.782 269.82,221.442 270.158,221.859C270.483,222.261 270.969,222.444 271.582,222.444C272.358,222.444 272.851,222.227 273.143,221.83C273.444,221.419 273.554,220.802 273.554,220.024L273.554,218.938L276.544,218.938L276.544,220.05C276.544,221.505 276.054,222.573 275.242,223.295C274.344,224.094 273.056,224.463 271.609,224.463C270.174,224.463 268.886,224.065 267.984,223.222C267.169,222.461 266.674,221.344 266.674,219.84L266.674,211.615C266.674,210.156 267.125,209.017 267.938,208.238C268.77,207.44 269.973,207.022 271.451,207.022C271.952,207.022 272.478,207.071 272.975,207.211C273.4,207.33 273.805,207.52 274.157,207.803L274.299,207.27L274.337,207.128ZM291.651,217.68C291.373,217.894 291.189,218.265 290.978,218.849L290.976,218.853L289.79,221.911C289.725,222.079 289.656,222.274 289.591,222.461L289.59,222.461C289.204,223.559 288.914,224.38 287.478,224.356L287.478,224.357C287.177,224.357 286.797,224.331 286.434,224.266L286.433,224.266C286.139,224.212 285.854,224.131 285.626,224.015L285.522,223.962L285.522,222.639L285.749,222.684C286.487,222.832 286.911,221.515 287.106,220.907C287.141,220.798 287.171,220.71 287.196,220.646L287.195,220.645L287.197,220.64L287.197,220.64L288.012,218.379L288.012,218.377C288.15,218.004 288.297,217.698 288.501,217.43C288.631,217.259 288.786,217.106 288.974,216.963C288.322,216.75 287.757,216.37 287.346,215.822C286.896,215.222 286.629,214.418 286.629,213.407L286.629,211.245C286.629,209.832 287.105,208.854 287.885,208.21L287.886,208.21C288.785,207.468 290.08,207.18 291.512,207.18L291.512,207.18L296.31,207.18L296.5,207.181L296.5,208.172L296.428,208.229L295.682,208.831L295.682,222.459L296.606,223.14L296.684,223.197L296.684,224.194L291.77,224.194L291.77,223.197L291.848,223.14L292.772,222.459L292.772,217.396C292.241,217.41 291.897,217.49 291.651,217.679L291.65,217.68L291.651,217.68ZM291.538,215.563L292.799,215.563L292.799,209.09L291.512,209.09C290.771,209.09 290.29,209.283 290.002,209.639C289.707,210.002 289.593,210.55 289.593,211.246L289.593,213.407C289.593,214.101 289.725,214.647 290.032,215.011C290.334,215.369 290.821,215.563 291.538,215.563ZM306.256,223.131L307.166,222.58L307.166,208.833L306.395,208.232L306.322,208.175L306.322,207.18L310.92,207.18L310.92,208.175L310.846,208.232L310.076,208.833L310.076,214.614L313.387,214.614L313.387,208.833L312.617,208.232L312.543,208.175L312.543,207.18L317.115,207.18L317.115,208.175L317.042,208.232L316.271,208.833L316.271,222.579L317.206,223.13L317.299,223.185L317.299,224.195L312.412,224.195L312.412,223.188L312.501,223.132L313.387,222.582L313.387,216.418L310.076,216.418L310.076,222.581L310.985,223.132L311.078,223.188L311.078,224.195L306.164,224.195L306.164,223.186L306.256,223.131ZM334.889,207.128L336.938,207.128L336.938,212.174L333.975,212.174L333.975,211.536C333.975,210.831 333.877,210.192 333.587,209.74C333.309,209.307 332.838,209.037 332.082,209.037C331.571,209.037 331.053,209.223 330.693,209.702C330.388,210.107 330.19,210.724 330.19,211.615L330.19,219.84C330.19,220.782 330.373,221.442 330.711,221.859C331.036,222.261 331.521,222.444 332.135,222.444C332.911,222.444 333.403,222.227 333.696,221.83C333.997,221.419 334.107,220.802 334.107,220.024L334.107,218.938L337.097,218.938L337.097,220.05C337.097,221.505 336.607,222.573 335.795,223.295C334.897,224.094 333.609,224.463 332.162,224.463C330.727,224.463 329.438,224.065 328.537,223.222C327.722,222.461 327.226,221.344 327.226,219.84L327.226,211.615C327.226,210.156 327.678,209.017 328.491,208.238C329.322,207.44 330.526,207.022 332.004,207.022C332.505,207.022 333.031,207.071 333.528,207.211C333.952,207.33 334.358,207.52 334.709,207.803L334.851,207.27L334.889,207.128ZM356.495,207.182C356.718,207.186 356.939,207.19 357.145,207.181L357.343,207.173L357.343,208.51L357.153,208.51C356.803,208.51 356.587,208.595 356.433,208.757C356.266,208.932 356.149,209.212 356.012,209.573C355.901,209.868 355.76,210.338 355.6,210.879C355.183,212.283 354.63,214.149 353.99,214.829C354.412,214.971 354.761,215.279 355.046,215.69C355.475,216.306 355.762,217.159 355.941,218.008L356.679,221.462L356.687,221.499L356.688,221.499C356.764,221.832 356.915,222.172 357.12,222.407C357.303,222.618 357.532,222.744 357.787,222.689L357.787,222.69L357.794,222.688L358.035,222.63L358.028,222.876L358.001,223.852L357.999,223.956L357.91,224.01C357.703,224.133 357.446,224.216 357.187,224.268C356.841,224.338 356.486,224.357 356.234,224.357C355.394,224.371 354.82,224.108 354.419,223.659C354.027,223.219 353.809,222.608 353.671,221.906L353.672,221.906L352.987,218.586L352.986,218.585C352.846,217.884 352.656,217.249 352.333,216.798C352.025,216.369 351.586,216.102 350.932,216.102L350.41,216.102L350.41,222.459L351.359,223.14L351.438,223.197L351.438,224.195L346.524,224.195L346.524,223.198L346.602,223.141L347.526,222.46L347.526,208.836L346.732,208.234L346.656,208.177L346.656,207.181L351.253,207.181L351.253,208.175L351.18,208.232L350.41,208.833L350.41,214.317C351.693,214.184 352.106,212.682 352.536,211.121C353.016,209.376 353.518,207.56 355.247,207.237L355.25,207.237C355.653,207.167 356.083,207.175 356.495,207.182L356.495,207.182L356.495,207.182ZM375.844,208.174C376.722,208.981 377.219,210.136 377.219,211.536L377.219,219.814C377.219,221.213 376.722,222.37 375.843,223.178C374.967,223.982 373.717,224.437 372.205,224.437C370.698,224.437 369.458,223.978 368.59,223.177C367.712,222.365 367.217,221.205 367.217,219.814L367.217,211.536C367.217,210.145 367.711,208.986 368.59,208.175C369.458,207.374 370.699,206.917 372.205,206.917C373.717,206.917 374.969,207.371 375.844,208.174ZM370.674,209.577C370.339,210.002 370.181,210.656 370.181,211.536L370.181,219.814C370.181,220.68 370.339,221.334 370.674,221.763C370.998,222.178 371.503,222.391 372.205,222.391C372.864,222.391 373.354,222.136 373.687,221.724C374.071,221.251 374.256,220.565 374.256,219.814L374.256,211.536C374.256,210.773 374.072,210.091 373.692,209.621L373.692,209.62C373.359,209.209 372.867,208.958 372.205,208.958C371.503,208.958 370.998,209.164 370.674,209.577ZM396.463,220.098L396.463,224.195L387.12,224.195L387.12,223.197L387.2,223.14L388.149,222.458L388.149,208.757L387.354,208.155L387.278,208.097L387.278,207.18L396.147,207.18L396.147,211.277L394.578,211.277L394.537,211.142L393.893,209.037L391.111,209.037L391.111,214.799L392.967,214.799L393.574,213.611L393.627,213.507L394.67,213.507L394.67,217.894L393.631,217.894L393.577,217.795L392.971,216.682L391.111,216.682L391.111,221.632L391.112,221.632C391.112,221.866 391.077,222.051 390.974,222.205L390.974,222.205C390.949,222.243 390.921,222.279 390.888,222.312L394.192,222.312L394.989,220.22L395.036,220.098L396.463,220.098Z" style="fill:rgb(194,142,56);"/>
            <path id="path14" d="M223.797,234.423C224.401,234.423 224.899,234.92 224.899,235.525C224.899,235.525 224.899,235.525 224.899,235.525C224.898,236.129 224.401,236.627 223.797,236.627C223.192,236.627 222.695,236.129 222.695,235.525C222.695,234.92 223.192,234.423 223.797,234.423Z" style="fill:rgb(194,142,56);"/>
            <path id="path16" d="M380.101,234.417C380.705,234.417 381.203,234.914 381.203,235.519C381.203,235.519 381.203,235.519 381.203,235.519C381.203,236.123 380.705,236.621 380.101,236.621C379.496,236.621 378.999,236.123 378.999,235.519C378.999,234.914 379.496,234.417 380.101,234.417Z" style="fill:rgb(194,142,56);"/>
        </g>
        <g id="g18">
        </g>
        <g id="g30">
        </g>
    </g>
</svg>
