<?xml version="1.0" encoding="UTF-8" standalone="no"?>
<!DOCTYPE svg PUBLIC "-//W3C//DTD SVG 1.1//EN" "http://www.w3.org/Graphics/SVG/1.1/DTD/svg11.dtd">
<svg width="100%" height="100%" viewBox="0 0 83 76" version="1.1" xmlns="http://www.w3.org/2000/svg" xmlns:xlink="http://www.w3.org/1999/xlink" xml:space="preserve" xmlns:serif="http://www.serif.com/" style="fill-rule:evenodd;clip-rule:evenodd;stroke-linejoin:round;stroke-miterlimit:2;">
    <g transform="matrix(1,0,0,1,-259.396,-120.705)">
        <path id="path10" d="M263.688,150.304C266.881,147.39 262.252,144.223 259.396,144.213C259.715,145.748 260.322,153.377 263.688,150.304ZM288.337,166.314C290.947,167.046 293.889,168.556 295.698,169.419C297.818,168.159 300.725,166.953 304.253,166.299L304.253,154.881L295.516,147.293L288.167,154.881L288.337,166.314ZM325.506,130.315L296.801,131.182L328.785,133.338C329.481,134.068 330.146,134.829 330.776,135.619L301.819,136.428L332.75,138.359C333.198,139.05 333.622,139.758 334.02,140.483L317.322,141.314L335.419,143.326C335.686,143.94 335.935,144.563 336.167,145.194L320.504,146.052L337.082,148.08C337.277,148.805 337.449,149.538 337.597,150.281L324.223,151.049L338.001,152.816C338.081,153.473 338.142,154.136 338.185,154.804L325.855,155.656L338.25,157.57C338.238,158.261 338.206,158.946 338.154,159.626L326.218,160.394L337.88,162.069C337.775,162.773 337.649,163.471 337.502,164.16C336.541,164.185 335.578,164.223 334.614,164.276C330.946,164.465 327.338,164.835 323.804,165.374L323.804,156.487L315.274,147.467L315.274,144.291L311.046,144.291L311.046,149.14C311.117,150.28 309.534,150.346 309.569,149.058L309.569,145.178L294.269,145.137L285.401,154.816L285.398,165.47C280.478,163.919 275.385,162.801 270.067,162.227C269.805,160.519 269.668,158.771 269.668,156.99C269.668,152.716 270.867,148.243 275.879,147.34C273.033,149.396 271.244,152.933 271.348,156.91C278.293,154.341 275.92,149.865 278.851,145.648C276.922,144.734 273.021,145.115 269.678,148.545C272.508,133.47 288.794,130.979 293.14,136.572C284.627,134.442 280.173,137.35 277.616,140.682C286.251,148.204 291.248,139.92 298.826,138.007C293.059,128.843 278.899,128.421 272.14,136.606C271.236,132.157 268.247,128.291 263.948,127.158C263.761,132.342 257.941,141.281 265.723,143.394C267.425,139.837 267.89,135.402 266.435,130.538C270.11,133.906 269.634,138.929 268.275,143.697C265.942,151.882 264.997,160.339 267.244,168.645C271.619,184.801 286.385,196.691 303.923,196.691C324.903,196.691 341.916,179.678 341.918,158.697C341.919,137.717 324.902,120.701 303.924,120.705C297.053,120.704 290.603,122.512 285.063,125.734C282.135,127.437 284.018,129.182 286.171,127.696C291.356,124.527 297.442,122.696 303.963,122.695C308.98,122.696 313.744,123.776 318.039,125.714L292.964,126.531L322.858,128.374C323.772,128.979 324.656,129.628 325.506,130.315L325.506,130.315ZM306.804,175.16C316.18,170.283 326.486,166.797 337.344,164.864C337.042,166.148 336.669,167.404 336.227,168.627C327.038,169.707 318.409,172.805 310.667,177.476C309.387,176.684 308.099,175.911 306.804,175.16ZM320.358,183.876C323.93,180.659 328.121,177.95 332.637,175.795C330.071,179.698 326.732,183.048 322.835,185.622C322.011,185.035 321.185,184.453 320.358,183.876ZM333.679,174.107C327.779,175.696 322.303,178.346 317.389,181.836C316.473,181.217 315.555,180.606 314.634,180.003C320.815,175.311 328.172,171.765 335.927,169.427C335.294,171.051 334.541,172.614 333.679,174.107ZM297.615,159.997L293.618,159.997L293.619,156.381L297.615,156.381L297.615,159.997ZM316.87,157.693L311.877,157.693L311.877,161.309L316.87,161.309L316.87,157.693ZM275.401,131.416C277.125,130.223 277.396,127.115 274.579,124.666C274.399,125.865 272.691,127.376 271.974,128.799C270.857,131.014 273.569,132.684 275.401,131.416ZM297.383,192.183C295.549,191.965 293.651,191.61 291.443,190.6C287.284,186.521 282.935,183.46 277.391,180.693C285.259,182.525 292.308,187.404 297.383,192.183ZM274.017,173.704L274.018,173.706C283.311,177.259 295.262,183.773 303.911,191.283L303.962,191.283C305.713,191.283 307.432,191.151 309.112,190.898C300.853,184.043 286.088,176.246 274.016,173.704L274.017,173.704ZM315.018,189.46C316.313,189.018 317.574,188.503 318.795,187.916C306.836,179.44 289.667,169.075 271.066,166.08C289.113,171.631 302.379,180.265 315.018,189.46Z" style="fill:rgb(189,183,107);"/>
    </g>
</svg>
